<svg width="512" height="512" viewBox="0 0 512 512" fill="none" xmlns="http://www.w3.org/2000/svg">
  <rect width="512" height="512" rx="116" fill="#F4F0E5"/>
  <rect x="36" y="36" width="440" height="440" rx="96" fill="#17191F"/>
  <path d="M256 108L362 148V234C362 314 319 382 256 418C193 382 150 314 150 234V148L256 108Z" fill="#F7DF1F"/>
  <path d="M256 142L332 171V234C332 293 301 345 256 376C211 345 180 293 180 234V171L256 142Z" fill="#17191F"/>
  <circle cx="256" cy="220" r="38" fill="#F04E23"/>
  <circle cx="256" cy="220" r="14" fill="#F7DF1F"/>
  <rect x="196" y="286" width="22" height="54" rx="11" fill="#F7DF1F"/>
  <rect x="245" y="266" width="22" height="94" rx="11" fill="#FBFAF4"/>
  <rect x="294" y="300" width="22" height="40" rx="11" fill="#6B6F76"/>
</svg>
