<svg width="512" height="512" viewBox="0 0 512 512" fill="none" xmlns="http://www.w3.org/2000/svg">
  <rect width="512" height="512" rx="116" fill="#F4EFE7"/>
  <rect x="36" y="36" width="440" height="440" rx="96" fill="url(#bg)"/>
  <path d="M104 284C143 201 207 160 256 160C305 160 369 201 408 284" stroke="#FBF7EF" stroke-width="28" stroke-linecap="round"/>
  <path d="M136 322C172 252 218 224 256 224C294 224 340 252 376 322" stroke="#66C7C4" stroke-width="20" stroke-linecap="round"/>
  <circle cx="256" cy="196" r="38" fill="#F25C54"/>
  <rect x="150" y="320" width="44" height="72" rx="22" fill="#F7B267"/>
  <rect x="212" y="286" width="44" height="106" rx="22" fill="#FBF7EF"/>
  <rect x="274" y="304" width="44" height="88" rx="22" fill="#66C7C4"/>
  <rect x="336" y="332" width="44" height="60" rx="22" fill="#F25C54"/>
  <path d="M114 360H398" stroke="#FBF7EF" stroke-width="16" stroke-linecap="round" opacity="0.6"/>
  <defs>
    <linearGradient id="bg" x1="72" y1="88" x2="430" y2="430" gradientUnits="userSpaceOnUse">
      <stop stop-color="#13324A"/>
      <stop offset="1" stop-color="#234864"/>
    </linearGradient>
  </defs>
</svg>
