<svg width="512" height="512" viewBox="0 0 512 512" fill="none" xmlns="http://www.w3.org/2000/svg">
  <rect width="512" height="512" rx="116" fill="#F4F0E5"/>
  <rect x="36" y="36" width="440" height="440" rx="96" fill="#17191F"/>
  <path d="M116 166L202 124L256 168L310 124L396 166" stroke="#F7DF1F" stroke-width="20" stroke-linecap="round" stroke-linejoin="round"/>
  <path d="M138 226L212 190L256 224L300 190L374 226" stroke="#FBFAF4" stroke-width="16" stroke-linecap="round" stroke-linejoin="round" opacity="0.85"/>
  <path d="M154 356V274" stroke="#F7DF1F" stroke-width="28" stroke-linecap="round"/>
  <path d="M234 332V238" stroke="#FBFAF4" stroke-width="28" stroke-linecap="round"/>
  <path d="M314 366V262" stroke="#6B6F76" stroke-width="28" stroke-linecap="round"/>
  <path d="M394 316V250" stroke="#F04E23" stroke-width="28" stroke-linecap="round"/>
  <path d="M256 154C316 154 364 202 364 262C364 322 316 370 256 370C196 370 148 322 148 262C148 202 196 154 256 154Z" stroke="#F7DF1F" stroke-width="14"/>
  <circle cx="256" cy="262" r="34" fill="#F04E23"/>
</svg>
