<svg width="512" height="512" viewBox="0 0 512 512" fill="none" xmlns="http://www.w3.org/2000/svg">
  <rect width="512" height="512" rx="116" fill="#F4F0E5"/>
  <rect x="36" y="36" width="440" height="440" rx="96" fill="#17191F"/>
  <path d="M118 180H394" stroke="#F7DF1F" stroke-width="24" stroke-linecap="round"/>
  <path d="M118 238H394" stroke="#F7DF1F" stroke-width="18" stroke-linecap="round" opacity="0.6"/>
  <path d="M138 314C172 268 214 244 256 244C298 244 340 268 374 314" stroke="#FBFAF4" stroke-width="22" stroke-linecap="round"/>
  <path d="M164 356C189 332 220 320 256 320C292 320 323 332 348 356" stroke="#6B6F76" stroke-width="16" stroke-linecap="round"/>
  <path d="M256 112C319 112 370 163 370 226C370 289 319 340 256 340C193 340 142 289 142 226C142 163 193 112 256 112Z" fill="#F7DF1F"/>
  <path d="M256 138C304 138 344 178 344 226C344 274 304 314 256 314C208 314 168 274 168 226C168 178 208 138 256 138Z" fill="#17191F"/>
  <path d="M224 184L296 226L224 268V184Z" fill="#F04E23"/>
</svg>
