<svg width="512" height="512" viewBox="0 0 512 512" fill="none" xmlns="http://www.w3.org/2000/svg">
  <rect width="512" height="512" rx="116" fill="#F3EEE6"/>
  <rect x="36" y="36" width="440" height="440" rx="96" fill="url(#bg)"/>
  <path d="M122 166H390" stroke="#FBF7EF" stroke-width="20" stroke-linecap="round" opacity="0.75"/>
  <path d="M122 220H390" stroke="#FBF7EF" stroke-width="20" stroke-linecap="round" opacity="0.5"/>
  <path d="M122 274H316" stroke="#FBF7EF" stroke-width="20" stroke-linecap="round" opacity="0.75"/>
  <path d="M256 118C333 118 396 181 396 258C396 335 333 398 256 398C179 398 116 335 116 258C116 181 179 118 256 118Z" fill="#0E263C"/>
  <path d="M256 140C321 140 374 193 374 258C374 323 321 376 256 376C191 376 138 323 138 258C138 193 191 140 256 140Z" stroke="#66C7C4" stroke-width="14"/>
  <circle cx="256" cy="258" r="58" fill="#F25C54"/>
  <path d="M249 221L309 258L249 295V221Z" fill="#FBF7EF"/>
  <path d="M156 356C179 331 215 316 256 316C297 316 333 331 356 356" stroke="#F7B267" stroke-width="16" stroke-linecap="round"/>
  <defs>
    <linearGradient id="bg" x1="82" y1="70" x2="420" y2="450" gradientUnits="userSpaceOnUse">
      <stop stop-color="#183C59"/>
      <stop offset="1" stop-color="#10283D"/>
    </linearGradient>
  </defs>
</svg>
