<svg width="512" height="512" viewBox="0 0 512 512" fill="none" xmlns="http://www.w3.org/2000/svg">
  <rect width="512" height="512" rx="116" fill="#F3F0EA"/>
  <rect x="36" y="36" width="440" height="440" rx="96" fill="url(#bg)"/>
  <path d="M256 108L362 150V234C362 312 319 379 256 414C193 379 150 312 150 234V150L256 108Z" fill="#FBF7EF"/>
  <path d="M256 130L341 164V234C341 302 306 359 256 391C206 359 171 302 171 234V164L256 130Z" fill="#10283D"/>
  <circle cx="256" cy="212" r="34" fill="#F25C54"/>
  <rect x="196" y="268" width="24" height="64" rx="12" fill="#F7B267"/>
  <rect x="244" y="250" width="24" height="100" rx="12" fill="#FBF7EF"/>
  <rect x="292" y="286" width="24" height="52" rx="12" fill="#66C7C4"/>
  <path d="M196 181C212 163 231 154 256 154C281 154 300 163 316 181" stroke="#66C7C4" stroke-width="14" stroke-linecap="round"/>
  <defs>
    <linearGradient id="bg" x1="80" y1="64" x2="432" y2="456" gradientUnits="userSpaceOnUse">
      <stop stop-color="#153754"/>
      <stop offset="1" stop-color="#0B2236"/>
    </linearGradient>
  </defs>
</svg>
